<?xml version="1.0" standalone="no"?>
<!DOCTYPE svg PUBLIC "-//W3C//DTD SVG 20010904//EN"
 "http://www.w3.org/TR/2001/REC-SVG-20010904/DTD/svg10.dtd">
<svg version="1.0" xmlns="http://www.w3.org/2000/svg"
 width="512.000000pt" height="362.000000pt" viewBox="0 0 512.000000 362.000000"
 preserveAspectRatio="xMidYMid meet">

<g transform="translate(0.000000,362.000000) scale(0.100000,-0.100000)"
fill="#000000" stroke="none">
<path d="M1995 3559 c-162 -61 -176 -325 -20 -384 112 -43 275 25 275 115 0
85 -132 131 -170 60 -7 -12 -8 -39 -4 -65 7 -51 -1 -56 -61 -31 -83 35 -86
182 -4 216 70 29 205 -15 269 -87 59 -67 103 -205 111 -346 l3 -47 -49 -27
c-28 -14 -61 -34 -74 -44 l-24 -19 39 0 c22 -1 63 -9 92 -19 53 -18 54 -18
105 2 66 26 220 28 283 4 36 -13 47 -14 80 -2 22 8 64 14 94 15 l55 0 -48 34
c-27 19 -69 43 -93 53 -36 15 -44 23 -44 44 0 49 30 198 51 256 39 102 131
179 224 184 70 4 88 -1 126 -40 34 -34 39 -45 39 -85 0 -55 -25 -86 -69 -86
-28 0 -28 1 -23 50 5 57 -5 76 -48 85 -42 9 -98 -21 -118 -62 -15 -33 -15 -36
3 -71 45 -82 179 -109 266 -53 121 76 107 244 -26 326 -45 28 -56 30 -139 30
-79 0 -98 -4 -148 -28 -118 -58 -188 -192 -222 -421 l-12 -80 -89 -1 c-50 -1
-100 -5 -111 -9 -20 -6 -22 -2 -33 73 -35 240 -116 385 -245 442 -57 25 -194
35 -241 18z"/>
<path d="M2217 2846 c-58 -22 -111 -60 -126 -92 -42 -91 -45 -95 -60 -88 -136
56 -230 66 -351 35 -212 -53 -361 -169 -406 -317 -27 -86 -19 -224 22 -356 4
-15 0 -15 -48 -3 -29 7 -122 16 -207 19 -180 6 -196 2 -266 -76 l-45 -50 -49
36 c-105 77 -161 163 -161 246 0 27 3 50 8 50 4 0 18 -12 31 -25 30 -32 64
-32 90 1 58 74 -13 184 -110 171 -83 -11 -151 -97 -151 -189 1 -94 68 -192
210 -305 45 -37 82 -68 82 -70 0 -1 -12 -29 -27 -60 -15 -32 -28 -59 -28 -60
-1 -1 -46 7 -100 18 -173 36 -274 15 -347 -71 -83 -96 -75 -258 15 -322 42
-30 124 -31 163 -2 51 38 56 133 9 180 -20 19 -34 24 -78 24 l-55 0 10 39 c6
22 21 50 35 63 22 20 34 23 106 23 55 -1 105 -8 154 -23 l72 -22 -21 -48 c-22
-49 -36 -171 -24 -217 4 -16 24 -37 52 -54 37 -24 132 -137 122 -146 -2 -1
-34 -13 -73 -25 -195 -63 -310 -161 -349 -299 -20 -69 -20 -124 0 -214 61
-273 272 -413 651 -433 285 -15 707 58 1126 196 l157 51 46 -31 c141 -97 318
-143 465 -121 97 15 180 55 252 121 l58 53 357 -117 c538 -175 707 -213 911
-203 450 21 659 353 468 745 -46 95 -118 163 -215 202 l-79 33 37 73 c80 156
95 301 54 504 -4 23 5 30 151 105 86 44 171 93 190 108 42 34 47 72 11 88 -34
16 -114 -9 -278 -88 l-138 -66 -58 55 c-96 92 -185 127 -344 135 l-108 6 0 86
c0 208 -90 373 -274 500 -121 83 -225 121 -335 121 -61 0 -164 -31 -213 -65
-20 -14 -39 -25 -41 -25 -6 0 -24 47 -31 81 -13 58 -132 129 -215 129 -40 -1
-104 -34 -134 -70 -50 -59 -19 -117 39 -71 34 27 90 44 119 37 28 -7 66 -67
95 -147 18 -53 18 -54 -1 -79 -51 -65 -131 -194 -177 -286 -49 -97 -52 -101
-89 -107 -60 -10 -200 -8 -269 4 l-63 11 -47 91 c-57 112 -110 192 -182 276
l-55 63 18 33 c9 19 40 59 68 90 56 64 69 65 141 18 45 -29 73 -22 68 18 -9
83 -138 141 -235 105z m1388 -280 c161 -80 275 -228 298 -388 25 -174 -60
-405 -238 -650 -76 -104 -334 -365 -442 -446 -45 -34 -85 -62 -90 -62 -4 0
-21 23 -38 51 -66 111 -224 227 -333 245 -23 4 -44 10 -47 13 -6 11 40 235 79
383 63 240 144 449 233 600 58 100 187 235 255 267 101 48 209 43 323 -13z
m-1720 10 c122 -32 251 -135 340 -271 138 -210 258 -568 320 -952 l7 -42 -62
-31 c-78 -40 -144 -105 -178 -178 -22 -48 -27 -71 -27 -147 0 -78 4 -98 29
-152 49 -107 148 -179 259 -189 56 -5 100 10 105 37 4 23 -41 64 -85 77 -152
45 -235 200 -173 321 24 49 88 104 160 139 147 72 320 0 407 -171 57 -113 78
-274 48 -373 -47 -161 -184 -243 -385 -231 -151 8 -277 63 -376 162 -143 142
-160 340 -48 546 33 59 26 97 -19 113 -38 14 -56 1 -93 -68 l-30 -56 -90 102
c-234 268 -428 537 -517 720 -134 272 -126 465 21 569 103 73 273 106 387 75z
m862 -601 c-2 -5 -12 -34 -21 -62 l-18 -53 -78 0 -78 0 -18 53 c-9 28 -19 57
-21 62 -2 6 41 10 117 10 76 0 119 -4 117 -10z m-1822 -35 c-18 -35 -19 -74
-2 -88 25 -21 82 -24 125 -6 48 19 48 19 57 -17 5 -19 0 -34 -20 -57 -54 -64
-197 -62 -262 3 -40 40 -41 64 -8 121 30 52 60 74 97 74 28 0 28 0 13 -30z
m300 -10 c117 -31 117 -31 198 -169 l76 -128 -14 -64 c-18 -84 -35 -123 -101
-230 -30 -48 -60 -103 -66 -120 l-11 -32 -67 7 c-37 3 -137 1 -223 -5 l-156
-10 -30 33 -29 33 59 11 c128 23 170 103 115 221 -43 91 -140 179 -218 197
-30 7 -33 13 -19 34 7 11 16 9 47 -11 54 -36 120 -50 211 -45 91 4 146 27 175
72 28 45 20 115 -20 172 l-32 44 33 0 c17 0 50 -5 72 -10z m2949 -150 c1 -114
3 -130 28 -183 36 -77 124 -162 212 -206 63 -31 67 -35 61 -60 -11 -42 -47
-121 -56 -121 -15 0 -159 122 -203 173 -56 63 -101 146 -121 222 -15 61 -22
285 -8 299 4 4 25 6 47 4 l40 -3 0 -125z m174 66 c63 -40 74 -57 60 -94 -10
-27 -10 -37 4 -60 9 -15 30 -31 46 -36 22 -7 32 -17 36 -39 9 -44 7 -127 -3
-127 -13 0 -82 48 -119 83 -41 39 -79 111 -88 166 -8 47 3 131 17 131 5 0 26
-11 47 -24z m-1695 -190 c-10 -42 -21 -76 -24 -76 -3 0 -11 24 -17 53 -6 28
-14 62 -18 74 -5 19 -2 22 33 25 21 2 39 2 41 1 2 0 -5 -35 -15 -77z m1294
-11 c22 -136 97 -283 211 -414 l56 -63 -55 6 c-99 13 -106 16 -152 69 -88 104
-128 180 -148 281 -9 48 -8 55 28 123 21 40 40 73 43 73 3 0 11 -34 17 -75z
m-3197 -68 c0 -2 -7 -19 -17 -37 -14 -29 -14 -36 -2 -59 20 -35 69 -48 127
-32 53 14 62 7 62 -50 0 -48 -19 -62 -88 -67 -71 -5 -137 12 -168 43 -54 54
-8 205 63 205 13 0 23 -2 23 -3z m905 -152 c52 -67 52 -72 6 -170 -47 -98 -44
-96 -131 -83 -41 6 -76 12 -78 13 -2 2 22 46 52 99 31 52 63 114 71 138 24 69
25 71 29 67 2 -2 25 -31 51 -64z m2178 -176 c20 -30 35 -54 34 -55 -1 -1 -35
-4 -75 -7 l-74 -6 -24 52 c-35 77 -34 90 10 146 l40 50 26 -63 c15 -35 43 -88
63 -117z m-1914 -139 c8 -13 -2 -13 -72 4 -45 11 -83 20 -85 21 -1 1 8 25 20
53 l23 52 53 -58 c29 -31 56 -64 61 -72z m1671 54 c0 -6 -26 -18 -57 -28 -32
-10 -64 -21 -71 -24 -7 -2 13 21 45 51 57 55 58 55 70 34 7 -12 12 -27 13 -33z
m-2125 -69 c151 -23 402 -93 538 -150 l37 -15 0 -68 c0 -107 42 -235 102 -312
l19 -24 -53 -19 c-123 -43 -373 -110 -508 -137 -487 -97 -872 -47 -1039 135
-134 147 -92 340 103 474 179 123 471 165 801 116z m2812 -50 c216 -18 374
-108 441 -253 24 -51 26 -69 26 -162 0 -83 -5 -116 -22 -161 -63 -161 -202
-226 -462 -216 -218 8 -470 71 -910 226 -159 56 -224 83 -221 93 26 83 40 154
40 209 l1 67 53 22 c256 111 711 200 937 184 25 -2 78 -6 117 -9z"/>
<path d="M1273 1793 c-21 -8 -15 -32 18 -78 28 -39 31 -50 27 -94 -4 -36 -16
-67 -42 -106 -48 -73 -47 -92 4 -85 24 3 70 52 95 100 47 93 41 172 -17 227
-34 32 -64 45 -85 36z"/>
<path d="M2452 2594 c-27 -20 -22 -110 9 -170 59 -114 172 -136 254 -50 60 61
84 165 50 212 -13 20 -23 21 -155 21 -96 0 -146 -4 -158 -13z m219 -164 c10
-6 19 -19 19 -29 0 -41 -110 -56 -151 -21 l-24 20 24 20 c26 22 98 27 132 10z"/>
</g>
</svg>
