<?xml version="1.0" standalone="no"?>
<!DOCTYPE svg PUBLIC "-//W3C//DTD SVG 20010904//EN"
 "http://www.w3.org/TR/2001/REC-SVG-20010904/DTD/svg10.dtd">
<svg version="1.0" xmlns="http://www.w3.org/2000/svg"
 width="512.000000pt" height="512.000000pt" viewBox="0 0 512.000000 512.000000"
 preserveAspectRatio="xMidYMid meet">

<g transform="translate(0.000000,512.000000) scale(0.100000,-0.100000)"
fill="#000000" stroke="none">
<path d="M3410 5041 c-11 -38 -20 -73 -20 -79 0 -6 15 -16 34 -22 91 -30 215
-135 274 -234 l34 -55 -25 -54 c-36 -75 -43 -139 -23 -216 9 -34 16 -64 16
-66 0 -2 -26 -11 -57 -20 -339 -97 -662 -467 -663 -761 -1 -243 233 -373 499
-279 24 8 45 15 47 15 2 0 8 -19 14 -42 52 -209 179 -392 319 -461 58 -28 75
-32 151 -32 76 0 93 3 152 33 135 66 254 232 313 436 14 50 26 91 28 92 1 1
34 -11 72 -26 179 -72 358 -56 456 42 106 106 113 283 20 474 -50 102 -93 160
-187 256 -147 149 -335 253 -494 274 l-47 6 14 47 c21 67 12 163 -21 229 l-27
52 27 46 c59 100 166 194 274 239 25 10 46 20 47 20 2 1 -9 36 -23 78 l-25 76
-42 -15 c-124 -44 -273 -163 -348 -280 l-41 -62 -40 14 c-53 18 -169 18 -215
-1 -19 -8 -37 -15 -38 -15 -2 0 -15 20 -29 45 -76 128 -224 250 -368 301 l-37
13 -21 -68z m673 -435 c42 -17 93 -76 102 -116 16 -74 -24 -147 -100 -181
-131 -60 -280 52 -245 183 13 46 54 96 95 114 39 17 107 17 148 0z m-175 -475
c42 -30 56 -70 50 -150 -21 -289 -444 -637 -712 -587 -84 16 -121 101 -92 214
58 228 305 471 546 537 74 20 169 14 208 -14z m517 5 c268 -85 526 -379 528
-601 1 -109 -55 -151 -190 -142 -74 4 -94 10 -186 55 -172 84 -317 227 -394
388 -118 246 -10 380 242 300z m-345 -449 c14 -23 27 -45 28 -49 2 -5 -24 -8
-57 -8 -34 0 -61 2 -61 5 0 8 55 95 60 95 3 0 16 -19 30 -43z m160 -240 c31
-7 68 -22 84 -34 27 -22 27 -22 15 -83 l-12 -62 -36 6 c-172 29 -355 31 -520
5 -40 -6 -74 -9 -75 -7 -2 1 -6 19 -10 38 -6 34 -4 37 67 90 59 45 82 55 127
61 72 10 290 1 360 -14z m-94 -318 c60 -6 111 -13 114 -15 9 -10 -45 -98 -87
-141 -106 -108 -216 -108 -323 0 -44 45 -99 131 -89 141 5 6 164 23 230 25 25
0 95 -4 155 -10z"/>
<path d="M275 3843 c-148 -246 -268 -452 -268 -457 0 -6 109 -192 242 -413
132 -220 241 -406 241 -411 0 -6 -110 -193 -244 -417 l-244 -407 272 -454 271
-453 412 -1 412 0 246 -410 246 -410 458 0 458 0 245 408 244 407 414 5 415 5
272 452 271 451 -270 451 -271 451 -412 0 -412 0 -249 415 -249 415 -411 0
-411 0 -245 408 -244 407 -460 3 -461 2 -268 -447z m1314 -83 c122 -204 221
-374 219 -379 -2 -5 -102 -173 -223 -375 l-220 -366 -364 2 -365 3 -222 370
c-168 280 -220 374 -213 386 20 38 422 705 431 717 8 9 95 12 373 12 l362 0
222 -370z m1321 -828 l221 -369 -223 -371 -223 -372 -366 0 -366 0 -223 371
-222 371 222 369 221 369 369 0 369 0 221 -368z m-1326 -811 c119 -197 218
-365 221 -373 3 -8 -93 -178 -213 -378 l-219 -365 -370 -3 -370 -2 -222 369
-221 369 222 371 223 371 367 0 367 0 215 -359z m2642 -12 l222 -371 -222
-369 -221 -369 -369 2 -370 3 -218 364 c-126 210 -217 370 -213 379 3 8 102
176 221 373 l215 359 367 0 367 -1 221 -370z m-1318 -823 l223 -373 -223 -371
-223 -372 -365 0 -365 0 -220 367 c-121 202 -220 372 -220 378 0 6 99 176 220
378 l220 367 365 0 365 -1 223 -373z"/>
<path d="M716 3938 c-46 -72 -306 -511 -304 -513 27 -19 128 -75 136 -75 5 0
70 101 143 225 l134 224 203 1 202 0 0 80 0 80 -250 0 c-248 0 -250 0 -264
-22z"/>
<path d="M2092 3058 l3 -83 202 -3 202 -2 127 -213 c70 -116 132 -218 138
-224 9 -10 26 -4 79 28 37 22 67 42 67 44 0 2 -71 122 -158 267 l-158 263
-252 3 -253 2 3 -82z"/>
<path d="M480 1739 c-36 -22 -64 -45 -62 -51 2 -7 73 -128 158 -270 l155 -258
250 0 249 0 0 85 0 85 -204 0 -203 0 -134 225 c-74 123 -136 224 -139 224 -3
0 -34 -18 -70 -40z"/>
<path d="M3326 2248 c-8 -13 -80 -132 -160 -266 l-146 -243 172 -290 173 -289
260 3 260 2 0 80 0 80 -215 3 -215 3 -117 197 c-65 109 -118 204 -118 211 0 7
59 111 131 232 73 121 130 221 128 223 -13 10 -128 76 -133 76 -3 0 -12 -10
-20 -22z"/>
<path d="M1875 1204 c-93 -157 -169 -289 -168 -293 2 -10 303 -513 313 -524 7
-8 125 57 136 74 3 5 -51 103 -120 218 -69 115 -128 216 -132 224 -3 10 41 94
118 221 l123 206 47 0 48 0 0 80 0 80 -97 0 -98 -1 -170 -285z"/>
<path d="M2400 1410 l0 -80 85 0 85 0 0 80 0 80 -85 0 -85 0 0 -80z"/>
</g>
</svg>
